#!OML:ASF X:\für Bonn\!DataBase\2005_08_10_Bjorn_Final\c3d\bjorn.ASF
:FULLY-SPECIFIED
:DEGREES
63
root 0.563047 19.132 1.77684 -176.392 3.84077 -178.654
lowerback -15.0688 1.70218 2.44556
upperback -0.333998 1.96248 -0.0458766
thorax 8.19369 1.09714 -0.996717
lowerneck 15.4193 -3.47584 6.43875
upperneck 26.4225 -9.66111 -3.33114
head 5.36129 -6.48719 -2.32395
rclavicle 3.65267e-015 -3.926e-015
rhumerus -1387.18 -38.146 1426.47
rradius 24.532
rwrist 24.7356
rhand -19.5335 11.3144
rfingers 7.12502
rthumb 6.79014 -18.5567
lclavicle 3.65267e-015 -3.926e-015
lhumerus 64.579 39.155 24.5968
lradius 21.2272
lwrist -35.1384
lhand -25.4175 7.59448
lfingers 7.12502
lthumb 1.10836 37.5713
rfemur -11.5948 -5.32933 14.5041
rtibia 29.5067
rfoot -17.7845 12.1999
rtoes -24.4653
lfemur -8.17161 4.10675 -14.4753
ltibia 28.7088
lfoot -16.8521 -6.72685
ltoes -5.60225
64
root 0.564268 19.1274 1.72672 -176.301 3.90174 -178.701
lowerback -15.2323 1.63711 2.23233
upperback -0.440753 1.91115 0.0661562
thorax 8.15651 1.06484 -0.764742
lowerneck 15.5835 -3.48785 6.43627
upperneck 26.4435 -9.66921 -3.54432
head 5.33203 -6.51764 -2.38496
rclavicle -2.20527e-016 3.03147e-015
rhumerus -1387.58 -40.4881 1426.65
rradius 24.2443
rwrist 24.6405
rhand -19.8532 11.1345
rfingers 7.12502
rthumb 6.48158 -18.7464
lclavicle -2.20527e-016 3.03147e-015
lhumerus 63.1247 41.2314 23.8132
lradius 21.3388
lwrist -35.6644
lhand -25.3562 7.69516
lfingers 7.12502
lthumb 1.16754 37.6717
rfemur -11.5495 -5.24438 14.4216
rtibia 29.532
rfoot -18 12.2229
rtoes -25.1346
lfemur -8.02559 4.11638 -14.5303
ltibia 28.5922
lfoot -16.9362 -6.74425
ltoes -5.22327
65
root 0.563849 19.1238 1.67831 -176.207 3.95706 -178.682
lowerback -15.4621 1.57682 2.08416
upperback -0.476148 1.84595 0.224428
thorax 8.2346 1.02737 -0.520232
lowerneck 15.6546 -3.44681 6.28647
upperneck 26.5825 -9.68017 -3.63247
head 5.36755 -6.55975 -2.39357
rclavicle -5.20334e-015 -4.60311e-015
rhumerus -1388.02 -42.8658 1426.9
rradius 23.9723
rwrist 24.2257
rhand -20.3587 10.9912
rfingers 7.12502
rthumb 5.99354 -18.904
lclavicle -5.20334e-015 -4.60311e-015
lhumerus 61.5283 43.3816 23.0286
lradius 21.4934
lwrist -36.2674
lhand -25.3324 7.89715
lfingers 7.12502
lthumb 1.19051 37.8736
rfemur -11.5023 -5.19388 14.405
rtibia 29.5553
rfoot -18.1983 12.2603
rtoes -25.7206
lfemur -7.89507 4.12 -14.5178
ltibia 28.4837
lfoot -17.0037 -6.76758
ltoes -5.09933
66
root 0.564068 19.1202 1.63204 -176.125 4.05321 -178.704
lowerback -15.726 1.52213 1.90581
upperback -0.44447 1.78991 0.357814
thorax 8.40555 0.992248 -0.281202
lowerneck 15.5869 -3.33408 6.09702
upperneck 26.8664 -9.66514 -3.56967
head 5.48302 -6.58905 -2.36324
rclavicle 2.2034e-014 5.54112e-015
rhumerus -1388.55 -45.2692 1427.2
rradius 23.7234
rwrist 23.5648
rhand -20.8953 10.8624
rfingers 7.12502
rthumb 5.47546 -19.0469
lclavicle 2.2034e-014 5.54112e-015
lhumerus 59.773 45.5616 22.0469
lradius 21.6653
lwrist -36.6345
lhand -25.3416 8.23986
lfingers 7.12502
lthumb 1.18166 38.2163
rfemur -11.4676 -5.13252 14.3419
rtibia 29.5847
rfoot -18.3889 12.3516
rtoes -26.3061
lfemur -7.74606 4.20213 -14.545
ltibia 28.3696
lfoot -17.0843 -6.80579
ltoes -5.02198
67
root 0.563781 19.1149 1.58819 -176.054 4.17041 -178.701
lowerback -16.0092 1.49352 1.76566
upperback -0.367273 1.7578 0.499495
thorax 8.63897 0.968744 -0.0478678
lowerneck 15.8662 -10.1568 4.0013
upperneck 26.6893 -7.21841 -5.91338
head 5.28756 -1.37135 -2.33872
rclavicle -4.33599e-015 -4.02539e-015
rhumerus -1389.05 -47.7902 1427.4
rradius 23.5233
rwrist 23.2515
rhand -21.3383 10.7922
rfingers 7.12502
rthumb 5.04771 -19.1277
lclavicle -4.33599e-015 -4.02539e-015
lhumerus 57.5781 47.6308 20.6208
lradius 21.891
lwrist -36.4561
lhand -25.4151 8.66069
lfingers 7.12502
lthumb 1.11065 38.6375
rfemur -11.4224 -5.06641 14.3003
rtibia 29.6044
rfoot -18.4823 12.479
rtoes -26.3473
lfemur -7.59213 4.22712 -14.5574
ltibia 28.2676
lfoot -17.1625 -6.77101
ltoes -4.91759
68
root 0.564107 19.1116 1.54775 -175.995 4.26313 -178.703
lowerback -16.2775 1.44797 1.6121
upperback -0.281518 1.70595 0.638002
thorax 8.87363 0.934327 0.185114
lowerneck 16.203 -10.1535 3.86391
upperneck 26.4683 -7.2113 -5.97919
head 5.17182 -1.38404 -2.32512
rclavicle -2.23012e-015 9.54166e-015
rhumerus -1389.42 -50.3978 1427.28
rradius 23.4295
rwrist 22.9862
rhand -21.6353 10.8394
rfingers 7.12502
rthumb 4.76091 -19.0871
lclavicle -2.23012e-015 9.54166e-015
lhumerus 54.9217 49.5648 18.7931
lradius 22.1902
lwrist -35.8562
lhand -25.4556 9.02444
lfingers 7.12502
lthumb 1.07155 39.0015
rfemur -11.3742 -4.99275 14.2621
rtibia 29.6296
rfoot -18.5659 12.5785
rtoes -26.2945
lfemur -7.4443 4.29104 -14.5668
ltibia 28.1644
lfoot -17.2441 -6.73195
ltoes -5.17645
69
root 0.56424 19.1072 1.50998 -175.922 4.37685 -178.683
lowerback -16.5507 1.41117 1.49561
upperback -0.199678 1.66013 0.770698
thorax 9.10901 0.904112 0.392676
lowerneck 16.6302 -10.158 3.77564
upperneck 26.1952 -7.19881 -6.07894
head 5.02367 -1.38824 -2.32725
rclavicle 6.3052e-015 2.98177e-016
rhumerus -1389.97 -53.0202 1427.18
rradius 23.4281
rwrist 22.8577
rhand -22.0082 10.8457
rfingers 7.12502
rthumb 4.40088 -19.0886
lclavicle 6.3052e-015 2.98177e-016
lhumerus 51.4771 51.255 16.2258
lradius 22.6215
lwrist -34.5268
lhand -25.4926 9.21876
lfingers 7.12502
lthumb 1.03583 39.196
rfemur -11.3594 -4.91603 14.2483
rtibia 29.6565
rfoot -18.6451 12.7101
rtoes -26.1649
lfemur -7.32322 4.34477 -14.5534
ltibia 28.0694
lfoot -17.3115 -6.74174
ltoes -5.26139
